HIERARCHY
ROOT Hips
{
	OFFSET 0.00000 0.00000 0.00000
	CHANNELS 6 Xposition Yposition Zposition Zrotation Yrotation Xrotation 
	JOINT LHipJoint
	{
		OFFSET 0 0 0
		CHANNELS 3 Zrotation Yrotation Xrotation
		JOINT LeftHip
		{
			OFFSET 1.53139 -1.83434 0.76626
			CHANNELS 3 Zrotation Yrotation Xrotation
			JOINT LeftKnee
			{
				OFFSET 2.56112 -7.03663 0.00000
				CHANNELS 3 Zrotation Yrotation Xrotation
				JOINT LeftAnkle
				{
					OFFSET 2.59983 -7.14299 0.00000
					CHANNELS 3 Zrotation Yrotation Xrotation
					JOINT LeftToe
					{
						OFFSET 0.13742 -0.37757 2.00054
						CHANNELS 3 Zrotation Yrotation Xrotation
						End Site
						{
							OFFSET 0.00000 -0.00000 1.02897
						}
					}
				}
			}
		}
	}
	JOINT RHipJoint
	{
		OFFSET 0 0 0
		CHANNELS 3 Zrotation Yrotation Xrotation
		JOINT RightHip
		{
			OFFSET -1.40122 -1.83435 0.76627
			CHANNELS 3 Zrotation Yrotation Xrotation
			JOINT RightKnee
			{
				OFFSET -2.54052 -6.98003 0.00000
				CHANNELS 3 Zrotation Yrotation Xrotation
				JOINT RightAnkle
				{
					OFFSET -2.63179 -7.23079 0.00000
					CHANNELS 3 Zrotation Yrotation Xrotation
					JOINT RightToe
					{
						OFFSET -0.24131 -0.66299 2.03908
						CHANNELS 3 Zrotation Yrotation Xrotation
						End Site
						{
							OFFSET -0.00000 -0.00000 1.07391
						}
					}
				}
			}
		}
	}
	JOINT lowerback
	{
		OFFSET 0 0 0
		CHANNELS 3 Zrotation Yrotation Xrotation
		JOINT Chest
		{
			OFFSET 0.01174 2.10302 -0.29778
			CHANNELS 3 Zrotation Yrotation Xrotation
			JOINT Chest2
			{
				OFFSET 0.00772 2.13227 -0.01247
				CHANNELS 3 Zrotation Yrotation Xrotation
				JOINT lowerneck
				{
					OFFSET 0 0 0
					CHANNELS 3 Zrotation Yrotation Xrotation
					JOINT Neck
					{
						OFFSET -0.09219 1.60848 0.31481
						CHANNELS 3 Zrotation Yrotation Xrotation
						JOINT Head
						{
							OFFSET 0.13974 1.65456 -0.31134
							CHANNELS 3 Zrotation Yrotation Xrotation
							End Site
							{
								OFFSET 0.04742 1.69515 -0.14578
							}
						}
					}
				}
				JOINT LeftCollar
				{
					OFFSET 0 0 0
					CHANNELS 3 Zrotation Yrotation Xrotation
					JOINT LeftShoulder
					{
						OFFSET 3.24909 1.02882 -0.23993
CHANNELS 3 Zrotation Xrotation Yrotation
						JOINT LeftElbow
						{
OFFSET 0 -5.329550 -0.000000
CHANNELS 3 Zrotation Xrotation Yrotation
							JOINT LeftWrist
							{
OFFSET 0 -3.692320 -0.000000
CHANNELS 3 Zrotation Xrotation Yrotation
								JOINT lhand
								{
									OFFSET 0 0 0
CHANNELS 3 Zrotation Xrotation Yrotation
									JOINT LFingers
									{
OFFSET 0 -0.536600 -0.000000
CHANNELS 3 Zrotation Xrotation Yrotation
										End Site
										{
OFFSET 0 -0.432620 -0.000000
										}
									}
								}
								JOINT LThumb
								{
OFFSET 0 0.000000 0.000000
CHANNELS 3 Zrotation Xrotation Yrotation
									End Site
									{
OFFSET 0 -0.439220 0.439220
									}
								}
							}
						}
					}
				}
				JOINT RightCollar
				{
					OFFSET 0 0 0
					CHANNELS 3 Zrotation Yrotation Xrotation
					JOINT RightShoulder
					{
						OFFSET -3.21387 0.93002 -0.34594
CHANNELS 3 Zrotation Xrotation Yrotation
						JOINT RightElbow
						{
OFFSET 0 -5.234310 0.000000
CHANNELS 3 Zrotation Xrotation Yrotation
							JOINT RightWrist
							{
OFFSET 0 -3.553010 -0.000000
CHANNELS 3 Zrotation Xrotation Yrotation
								JOINT rhand
								{
									OFFSET 0 0 0
CHANNELS 3 Zrotation Xrotation Yrotation
									JOINT RFingers
									{
OFFSET 0 -0.772520 -0.000000
CHANNELS 3 Zrotation Xrotation Yrotation
										End Site
										{
OFFSET 0 -0.622830 -0.000000
										}
									}
								}
								JOINT RThumb
								{
OFFSET 0 0.000000 0.000000
CHANNELS 3 Zrotation Xrotation Yrotation
									End Site
									{
OFFSET 0 -0.632340 0.632340
									}
								}
							}
						}
					}
				}
			}
		}
	}
}
MOTION
Frames: 7
Frame Time: 0.008333333333333333
11.808600 17.885100 -19.137500 178.824000 -9.486900 -179.340000 0.000000 0.000000 0.000000 -19.372200 -14.121000 -11.039200 1.942700 8.745800 25.003200 -0.017600 -8.269800 -5.433300 0.002300 -0.311500 -0.855900 0.000000 0.000000 0.000000 22.700600 0.086600 -15.525300 -2.879300 -10.497000 30.601800 -0.577900 -3.857700 -16.284300 -0.060100 -1.581300 4.350000 0.265100 4.212000 12.995100 -1.165200 5.303000 2.464400 -2.235800 2.499100 -4.528900 -9.647600 8.984000 -15.720800 3.955300 10.920300 45.740100 5.198800 1.488700 19.425600 -0.000000 0.000000 0.000000 2.811800 0.586700 -15.791700 18.689100 -29.030500 4.879000 20.437800 13.412500 -22.873500 0.000000 0.000000 0.000000 -7.125000 0.000000 0.000000 -9.067500 53.989900 2.016500 -0.000000 0.000000 0.000000 -3.201100 2.294100 14.211400 -20.248500 -30.940500 -5.658500 -14.791100 1.960100 -8.307300 0.000000 0.000000 0.000000 7.125000 0.000000 -0.000000 8.725200 21.430800 4.990900
11.822711 17.862575 -19.113222 178.809100 -9.687960 -179.355776 0.000000 0.000000 0.000000 -19.334425 -14.387532 -10.806587 1.903522 8.662010 24.743768 -0.000597 -8.178560 -5.719640 0.050768 -1.395945 -3.839723 0.000000 0.000000 0.000000 22.698496 -0.018575 -15.900601 -2.963177 -10.634955 31.058699 -0.595692 -3.792491 -16.452142 -0.061502 -1.600319 4.402325 0.338197 4.218749 13.093614 -1.173526 5.317549 2.488415 -2.293909 2.503482 -4.549497 -9.640325 9.015202 -15.604844 3.980805 10.941423 45.718539 5.204672 1.512277 19.371698 0.000000 0.000000 0.000000 2.702856 0.885924 -15.761462 18.815836 -29.189139 4.940703 20.525183 13.455972 -23.106376 0.000000 0.000000 0.000000 -7.125000 0.000000 0.000000 -9.069954 54.245038 2.073733 0.000000 0.000000 0.000000 -3.279894 2.199705 14.116129 -20.224222 -30.911577 -5.646054 -14.836413 1.717846 -8.475580 0.000000 0.000000 0.000000 7.125000 0.000000 0.000000 8.687074 21.256998 5.003170
11.834488 17.849236 -19.090450 179.007277 -9.923880 -179.379082 0.000000 0.000000 0.000000 -19.064072 -14.598724 -10.793602 1.911402 8.679037 24.796346 0.016030 -8.461975 -6.238557 0.122728 -2.224773 -6.128524 0.000000 0.000000 0.000000 22.923775 -0.239776 -16.191649 -2.997136 -10.690314 31.242589 -0.607310 -3.673976 -16.514952 -0.085116 -1.875106 5.160739 0.582659 4.169104 13.180232 -1.110928 5.290462 2.478247 -2.367228 2.487235 -4.592004 -9.524555 9.062065 -15.502516 3.803096 11.043409 45.662043 5.107394 1.557462 19.328110 0.000000 0.000000 0.000000 2.611078 1.229720 -15.635603 18.919684 -29.318716 4.991488 20.264717 13.529185 -23.386535 0.000000 0.000000 0.000000 -7.125000 0.000000 0.000000 -9.450450 54.480901 2.217025 0.000000 0.000000 0.000000 -3.415081 2.067137 14.042617 -20.145583 -30.817300 -5.605750 -14.696959 1.832854 -8.502086 0.000000 0.000000 0.000000 7.125000 0.000000 0.000000 8.786507 21.236189 5.066037
11.844371 17.845145 -19.066414 179.082441 -10.110513 -179.312362 0.000000 0.000000 0.000000 -18.920078 -14.745261 -10.908102 1.921590 8.700899 24.863992 0.032029 -8.804533 -6.757998 0.172359 -2.668835 -7.358458 0.000000 0.000000 0.000000 23.006926 -0.449740 -16.549120 -3.026869 -10.738289 31.402390 -0.621251 -3.519461 -16.582619 -0.132892 -2.332148 6.425163 0.741823 4.156717 13.191135 -1.103783 5.298271 2.470842 -2.450594 2.489882 -4.591342 -9.517991 9.072601 -15.538938 3.757383 11.093082 45.693151 5.098487 1.569627 19.361175 0.000000 0.000000 0.000000 2.590846 1.446269 -15.500097 18.910704 -29.307577 4.987111 20.227565 13.666062 -23.350635 0.000000 0.000000 0.000000 -7.125000 0.000000 0.000000 -9.473681 54.437113 2.211931 0.000000 0.000000 0.000000 -3.552599 1.899040 13.997410 -20.040906 -30.691530 -5.552253 -14.493957 2.043992 -8.382096 0.000000 0.000000 0.000000 7.125000 0.000000 0.000000 8.936769 21.367493 5.127639
11.855179 17.844548 -19.039864 179.067766 -10.273375 -179.192618 0.000000 0.000000 0.000000 -18.844161 -14.854756 -11.130636 1.937039 8.733745 24.965916 0.043607 -9.178400 -7.197107 0.180148 -2.733131 -7.536713 0.000000 0.000000 0.000000 23.000868 -0.552267 -16.897828 -3.049863 -10.775231 31.525603 -0.630381 -3.450561 -16.646616 -0.177037 -2.705714 7.460687 0.843414 4.188994 13.152391 -1.130313 5.353469 2.488524 -2.539303 2.516805 -4.537015 -9.584861 9.044600 -15.627635 3.802022 11.087569 45.729742 5.141286 1.563186 19.400499 0.000000 0.000000 0.000000 2.687584 1.563606 -15.653826 18.861990 -29.246864 4.963299 20.525586 13.610072 -23.163737 0.000000 0.000000 0.000000 -7.125000 0.000000 0.000000 -9.092740 54.303652 2.092608 0.000000 0.000000 0.000000 -3.700652 1.737865 13.998283 -19.993851 -30.634900 -5.528200 -14.367697 2.068783 -8.176194 0.000000 0.000000 0.000000 7.125000 0.000000 0.000000 9.035249 21.582701 5.140971
11.867252 17.847000 -19.012707 179.102287 -10.421493 -179.127940 0.000000 0.000000 0.000000 -18.709403 -14.928398 -11.338811 1.958319 8.778694 25.105563 0.056849 -9.492074 -7.607529 0.176776 -2.707936 -7.466639 0.000000 0.000000 0.000000 23.070481 -0.685865 -17.150017 -3.067199 -10.803001 31.618386 -0.636632 -3.400004 -16.688610 -0.193659 -2.833791 7.816356 0.982771 4.229149 13.137636 -1.128000 5.423664 2.530247 -2.621878 2.550290 -4.468862 -9.684981 9.005322 -15.663681 3.863085 11.073256 45.683939 5.187630 1.565867 19.365465 0.000000 0.000000 0.000000 2.780715 1.696236 -15.926630 18.863746 -29.249066 4.964148 20.685863 13.364975 -23.025218 0.000000 0.000000 0.000000 -7.125000 0.000000 0.000000 -8.873085 54.192923 2.016695 0.000000 0.000000 0.000000 -3.842358 1.615414 13.982566 -20.044020 -30.695228 -5.553814 -14.314829 1.939602 -7.944245 0.000000 0.000000 0.000000 7.125000 0.000000 0.000000 9.082348 21.821016 5.118707
11.879057 17.854435 -18.987003 179.222863 -10.528287 -179.160820 0.000000 0.000000 0.000000 -18.504392 -14.981373 -11.424352 1.981334 8.826992 25.255709 0.079945 -9.617237 -8.048026 0.205251 -2.907634 -8.022291 0.000000 0.000000 0.000000 23.254098 -0.980445 -17.301219 -3.084277 -10.830290 31.709603 -0.646511 -3.227733 -16.701147 -0.184063 -2.762599 7.618498 1.169022 4.258049 13.205001 -1.083633 5.487500 2.564361 -2.692799 2.578945 -4.453329 -9.797762 8.979769 -15.643967 3.937299 11.065019 45.616186 5.236810 1.573285 19.295616 0.000000 0.000000 0.000000 2.748015 1.912152 -15.987770 18.917103 -29.315595 4.990211 20.400342 13.130072 -22.918303 0.000000 0.000000 0.000000 -7.125000 0.000000 0.000000 -9.123017 54.028784 2.037073 0.000000 0.000000 0.000000 -3.952907 1.552747 13.886557 -20.141457 -30.812418 -5.603636 -14.326989 1.811319 -7.820501 0.000000 0.000000 0.000000 7.125000 0.000000 0.000000 9.078432 21.946493 5.090208
